<svg xmlns="http://www.w3.org/2000/svg" viewBox="79.6 -3.7 236.0 318.1" width="236" height="318" role="img" aria-label="Дрыгает лапами">
<title>Дрыгает лапами</title>
<g transform="translate(200 165) rotate(4)"><path d="M 64 42 L 73.37167009777798 74.68289766190284" stroke="#828993" stroke-width="20" stroke-linecap="round" fill="none"/><path d="M 73.37167009777798 74.68289766190284 L 60.220535694105656 101.64671905087785" stroke="#828993" stroke-width="17.6" stroke-linecap="round" fill="none"/><path d="M 60.220535694105656 101.64671905087785 L 36.11375547536919 111.38649047969156" stroke="#828993" stroke-width="14.399999999999999" stroke-linecap="round" fill="none"/><circle cx="36.11375547536919" cy="111.38649047969156" r="9.200000000000001" fill="#828993"/><circle cx="48" cy="-18" r="15.180000000000001" fill="#828993"/><path d="M 48 -18 Q 65.0829390091836 -56.36890922098924 49.120905874463325 -86.38912737819277" fill="none" stroke="#828993" stroke-width="23" stroke-linecap="round"/><g transform="translate(49.120905874463325 -86.38912737819277) rotate(-118)"><ellipse cx="2" cy="0" rx="14.26" ry="11.96" fill="#a3a9b1"/><circle cx="11.5" cy="-7.36" r="3.4499999999999997" fill="#e3a8a8" opacity="0.5"/><circle cx="11.5" cy="0" r="3.4499999999999997" fill="#e3a8a8" opacity="0.5"/><circle cx="11.5" cy="7.36" r="3.4499999999999997" fill="#e3a8a8" opacity="0.5"/></g><circle cx="52" cy="24" r="17.16" fill="#828993"/><path d="M 52 24 Q 57.017366236847366 -23.737050977677114 41.56137379996696 -58.45177836809595" fill="none" stroke="#828993" stroke-width="26" stroke-linecap="round"/><g transform="translate(41.56137379996696 -58.45177836809595) rotate(-114)"><ellipse cx="2" cy="0" rx="16.12" ry="13.52" fill="#a3a9b1"/><circle cx="13" cy="-8.32" r="3.9" fill="#e3a8a8" opacity="0.5"/><circle cx="13" cy="0" r="3.9" fill="#e3a8a8" opacity="0.5"/><circle cx="13" cy="8.32" r="3.9" fill="#e3a8a8" opacity="0.5"/></g><ellipse cx="0" cy="0" rx="86" ry="54" fill="#9aa1a9"/><ellipse cx="0" cy="4" rx="61.919999999999995" ry="33.48" fill="#ded9d0" opacity="0.95"/><path d="M -4.8999999999999995 -28.7 L -12.04 -70.52" stroke="#9aa1a9" stroke-width="42" stroke-linecap="round"/><circle cx="-48" cy="-18" r="16.5" fill="#9aa1a9"/><path d="M -48 -18 Q -81.09645165148231 -43.85778196367765 -85.82833708412453 -77.52689630089105" fill="none" stroke="#9aa1a9" stroke-width="25" stroke-linecap="round"/><g transform="translate(-85.82833708412453 -77.52689630089105) rotate(-98)"><ellipse cx="2" cy="0" rx="15.5" ry="13" fill="#b9bec5"/><circle cx="12.5" cy="-8" r="3.75" fill="#e3a8a8" opacity="0.75"/><circle cx="12.5" cy="0" r="3.75" fill="#e3a8a8" opacity="0.75"/><circle cx="12.5" cy="8" r="3.75" fill="#e3a8a8" opacity="0.75"/></g><circle cx="-52" cy="24" r="18.48" fill="#9aa1a9"/><path d="M -52 24 Q -58.680308846083136 -23.53286729959538 -44.44525829627848 -58.7658537731333" fill="none" stroke="#9aa1a9" stroke-width="28" stroke-linecap="round"/><g transform="translate(-44.44525829627848 -58.7658537731333) rotate(-68)"><ellipse cx="2" cy="0" rx="17.36" ry="14.56" fill="#b9bec5"/><circle cx="14" cy="-8.96" r="4.2" fill="#e3a8a8" opacity="0.75"/><circle cx="14" cy="0" r="4.2" fill="#e3a8a8" opacity="0.75"/><circle cx="14" cy="8.96" r="4.2" fill="#e3a8a8" opacity="0.75"/></g><g transform="translate(-14 -82) rotate(198)"><path d="M -10 -34 L -33.5 -39.6 L -30 -6 Z" fill="#9aa1a9"/><path d="M -14 -30 L -28.474999999999998 -32.472 L -25.8 -12 Z" fill="#dfa9ab" opacity=".75"/><path d="M 10 -34 L 33.5 -39.6 L 30 -6 Z" fill="#9aa1a9"/><path d="M 14 -30 L 28.474999999999998 -32.472 L 25.8 -12 Z" fill="#dfa9ab" opacity=".75"/><circle cx="0" cy="0" r="46" fill="#9aa1a9"/><path d="M -44 4 C -26 26, 26 26, 44 4 C 42 28, 20 40, 0 40 C -20 40, -42 28, -44 4 Z" fill="#e6e2da"/><circle cx="-16" cy="20" r="14" fill="#e6e2da"/><circle cx="16" cy="20" r="14" fill="#e6e2da"/><ellipse cx="-19" cy="-2" rx="8" ry="2.45" fill="#33333a"/><path d="M -28 -2 Q -19 3 -10 -2" stroke="#33333a" stroke-width="2.4" fill="none" stroke-linecap="round"/><ellipse cx="19" cy="-2" rx="8" ry="2.45" fill="#33333a"/><path d="M 10 -2 Q 19 3 28 -2" stroke="#33333a" stroke-width="2.4" fill="none" stroke-linecap="round"/><path d="M 0 10 L -6 17 L 6 17 Z" fill="#dfa9ab"/><path d="M 0 17 Q -7 28 -14 21" stroke="#33333a" stroke-width="2" fill="none" stroke-linecap="round"/><path d="M 0 17 Q 7 28 14 21" stroke="#33333a" stroke-width="2" fill="none" stroke-linecap="round"/><ellipse cx="0" cy="27" rx="7" ry="9" fill="#ef9aa4"/><g stroke="#f2efe8" stroke-width="1.6" stroke-linecap="round" opacity=".9"><path d="M -26 12 L -66 4"/><path d="M -26 19 L -68 20"/><path d="M -26 25 L -64 34"/><path d="M 26 12 L 66 4"/><path d="M 26 19 L 68 20"/><path d="M 26 25 L 64 34"/></g></g></g>
</svg>
