<svg xmlns="http://www.w3.org/2000/svg" viewBox="21.8 70.7 382.4 225.9" width="382" height="226" role="img" aria-label="Плюх мордой в матрас">
<title>Плюх мордой в матрас</title>
<g transform="translate(200 165) rotate(0)"><path d="M 90 20 L 120.55899757417168 34.90461899082863" stroke="#828993" stroke-width="20" stroke-linecap="round" fill="none"/><path d="M 120.55899757417168 34.90461899082863 L 150.2670396364188 30.729425962026667" stroke="#828993" stroke-width="17.6" stroke-linecap="round" fill="none"/><path d="M 150.2670396364188 30.729425962026667 L 168.96987444522372 12.668308330092739" stroke="#828993" stroke-width="14.399999999999999" stroke-linecap="round" fill="none"/><circle cx="168.96987444522372" cy="12.668308330092739" r="9.200000000000001" fill="#828993"/><circle cx="-46" cy="18" r="14.520000000000001" fill="#828993"/><path d="M -46 18 Q -90.50482501920578 35.98111648396379 -121.24747080545379 58.31695607107777" fill="none" stroke="#828993" stroke-width="22" stroke-linecap="round"/><g transform="translate(-121.24747080545379 58.31695607107777) rotate(144)"><ellipse cx="2" cy="0" rx="13.64" ry="11.440000000000001" fill="#a3a9b1"/><circle cx="11" cy="-7.04" r="3.3" fill="#e3a8a8" opacity="0.5"/><circle cx="11" cy="0" r="3.3" fill="#e3a8a8" opacity="0.5"/><circle cx="11" cy="7.04" r="3.3" fill="#e3a8a8" opacity="0.5"/></g><circle cx="56" cy="26" r="16.5" fill="#828993"/><path d="M 56 26 Q 101.1052457977236 42.4169668796321 131.8478915839716 64.75280646674608" fill="none" stroke="#828993" stroke-width="25" stroke-linecap="round"/><g transform="translate(131.8478915839716 64.75280646674608) rotate(36)"><ellipse cx="2" cy="0" rx="15.5" ry="13" fill="#a3a9b1"/><circle cx="12.5" cy="-8" r="3.75" fill="#e3a8a8" opacity="0.5"/><circle cx="12.5" cy="0" r="3.75" fill="#e3a8a8" opacity="0.5"/><circle cx="12.5" cy="8" r="3.75" fill="#e3a8a8" opacity="0.5"/></g><ellipse cx="0" cy="0" rx="96" ry="48" fill="#9aa1a9"/><ellipse cx="0" cy="8" rx="69.12" ry="29.759999999999998" fill="#ded9d0" opacity="0.3"/><path d="M -28 14 L -68.8 34.4" stroke="#9aa1a9" stroke-width="42" stroke-linecap="round"/><circle cx="-56" cy="-8" r="15.84" fill="#9aa1a9"/><path d="M -56 -8 Q -100.5048250192058 -25.981116483963778 -131.24747080545382 -48.316956071077755" fill="none" stroke="#9aa1a9" stroke-width="24" stroke-linecap="round"/><g transform="translate(-131.24747080545382 -48.316956071077755) rotate(216)"><ellipse cx="2" cy="0" rx="14.879999999999999" ry="12.48" fill="#b9bec5"/><circle cx="12" cy="-7.68" r="3.5999999999999996" fill="#e3a8a8" opacity="0.75"/><circle cx="12" cy="0" r="3.5999999999999996" fill="#e3a8a8" opacity="0.75"/><circle cx="12" cy="7.68" r="3.5999999999999996" fill="#e3a8a8" opacity="0.75"/></g><circle cx="60" cy="0" r="17.82" fill="#9aa1a9"/><path d="M 60 0 Q 105.65071278216737 -14.832815729997474 137.15414053925895 -36.08214606188586" fill="none" stroke="#9aa1a9" stroke-width="27" stroke-linecap="round"/><g transform="translate(137.15414053925895 -36.08214606188586) rotate(-34)"><ellipse cx="2" cy="0" rx="16.74" ry="14.040000000000001" fill="#b9bec5"/><circle cx="13.5" cy="-8.64" r="4.05" fill="#e3a8a8" opacity="0.75"/><circle cx="13.5" cy="0" r="4.05" fill="#e3a8a8" opacity="0.75"/><circle cx="13.5" cy="8.64" r="4.05" fill="#e3a8a8" opacity="0.75"/></g><g transform="translate(-80 40) rotate(96)"><path d="M -10 -34 L -32 -37.2 L -30 -6 Z" fill="#9aa1a9"/><path d="M -14 -30 L -27.2 -30.504 L -25.8 -12 Z" fill="#dfa9ab" opacity=".75"/><path d="M 10 -34 L 32 -37.2 L 30 -6 Z" fill="#9aa1a9"/><path d="M 14 -30 L 27.2 -30.504 L 25.8 -12 Z" fill="#dfa9ab" opacity=".75"/><circle cx="0" cy="0" r="46" fill="#9aa1a9"/><path d="M -44 4 C -26 26, 26 26, 44 4 C 42 28, 20 40, 0 40 C -20 40, -42 28, -44 4 Z" fill="#e6e2da"/><circle cx="-16" cy="20" r="14" fill="#e6e2da"/><circle cx="16" cy="20" r="14" fill="#e6e2da"/><ellipse cx="-19" cy="-2" rx="8" ry="2.0250000000000004" fill="#33333a"/><path d="M -28 -2 Q -19 3 -10 -2" stroke="#33333a" stroke-width="2.4" fill="none" stroke-linecap="round"/><ellipse cx="19" cy="-2" rx="8" ry="2.0250000000000004" fill="#33333a"/><path d="M 10 -2 Q 19 3 28 -2" stroke="#33333a" stroke-width="2.4" fill="none" stroke-linecap="round"/><path d="M 0 10 L -6 17 L 6 17 Z" fill="#dfa9ab"/><path d="M 0 17 Q -7 25.6 -14 19.8" stroke="#33333a" stroke-width="2" fill="none" stroke-linecap="round"/><path d="M 0 17 Q 7 25.6 14 19.8" stroke="#33333a" stroke-width="2" fill="none" stroke-linecap="round"/><g stroke="#f2efe8" stroke-width="1.6" stroke-linecap="round" opacity=".9"><path d="M -26 12 L -66 4"/><path d="M -26 19 L -68 20"/><path d="M -26 25 L -64 34"/><path d="M 26 12 L 66 4"/><path d="M 26 19 L 68 20"/><path d="M 26 25 L 64 34"/></g></g></g>
</svg>
